PathFileType	4	(X/Y/Z)	/Users/itak/Documents/Research/Walk-IL/dataset/trc/00176_00008.trc
DataRate	CameraRate	NumFrames	NumMarkers	Units	OrigDataRate	OrigDataStartFrame	OrigNumFrames
100.000000	100.000000	4	53	mm	100.000000	464	619
Frame#	Time	RPSI			LPSI			L3			STRN			T10			C7			CLAV			RBAK			LBAK			LSHO			LUPA			LAEL			LAOL			LWTS			LWPS			LFRA			LIFD			LHPS			LHTS			RSHO			RUPA			RAEL			RAOL			RWTS			RWPS			RFRA			RIFD			RHTS			RHPS			RBHD			LFHD			RFHD			LBHD			LHIP			RHIP			RASI			LASI			LKNE			LTHI			LANK			LTIP			LTOE			LMT1			LMT5			LHEE			RKNE			RTHI			RANK			RTIP			RTOE			RMT1			RMT5			RHEE			
		X1	Y1	Z1	X2	Y2	Z2	X3	Y3	Z3	X4	Y4	Z4	X5	Y5	Z5	X6	Y6	Z6	X7	Y7	Z7	X8	Y8	Z8	X9	Y9	Z9	X10	Y10	Z10	X11	Y11	Z11	X12	Y12	Z12	X13	Y13	Z13	X14	Y14	Z14	X15	Y15	Z15	X16	Y16	Z16	X17	Y17	Z17	X18	Y18	Z18	X19	Y19	Z19	X20	Y20	Z20	X21	Y21	Z21	X22	Y22	Z22	X23	Y23	Z23	X24	Y24	Z24	X25	Y25	Z25	X26	Y26	Z26	X27	Y27	Z27	X28	Y28	Z28	X29	Y29	Z29	X30	Y30	Z30	X31	Y31	Z31	X32	Y32	Z32	X33	Y33	Z33	X34	Y34	Z34	X35	Y35	Z35	X36	Y36	Z36	X37	Y37	Z37	X38	Y38	Z38	X39	Y39	Z39	X40	Y40	Z40	X41	Y41	Z41	X42	Y42	Z42	X43	Y43	Z43	X44	Y44	Z44	X45	Y45	Z45	X46	Y46	Z46	X47	Y47	Z47	X48	Y48	Z48	X49	Y49	Z49	X50	Y50	Z50	X51	Y51	Z51	X52	Y52	Z52	X53	Y53	Z53	

465	4.64	-1091.0322265625	1061.90625	386.5272827148438	-1096.050415039062	1065.714233398438	264.5921936035156	-1089.051513671875	1104.701782226562	330.0654296875	-810.8743896484375	1297.017822265625	311.1598510742188	-1107.341918945312	1261.7890625	325.4553833007812	-1029.924072265625	1527.742797851562	300.6024169921875	-834.222412109375	1411.712646484375	297.4854736328125	-1098.906372070312	1359.506103515625	419.9087524414062	-1043.485107421875	1499.489379882812	200.8860778808594	-971.8734741210938	1477.2861328125	118.7714767456055	-1019.486999511719	1344.091918945312	57.27024459838867	-1025.367431640625	1126.96435546875	52.60572052001953	-1056.29296875	1117.205078125	135.4223937988281	-914.5159301757812	894.47265625	71.23915100097656	-1003.175903320312	872.2900390625	50.81745529174805	-1018.4189453125	1015.099304199219	42.40254592895508	-894.108154296875	709.3804321289062	98.23561859130859	-981.075927734375	802.2603759765625	54.6915397644043	-908.6094970703125	814.3161010742188	54.37841033935547	-958.1515502929688	1508.605712890625	478.5650634765625	-978.611083984375	1445.949096679688	552.943359375	-997.469970703125	1158.902709960938	618.9632568359375	-1009.088012695312	1147.170532226562	520.8618774414062	-856.0648803710938	932.782470703125	596.5922241210938	-926.870849609375	915.2559204101562	648.3952026367188	-970.9766845703125	1086.517211914062	637.6835327148438	-839.2911376953125	746.218994140625	574.55322265625	-826.3704833984375	840.0901489257812	605.7623291015625	-896.0504150390625	833.0023193359375	645.0990600585938	-968.0078125	1684.466430664062	365.6920166015625	-825.6810913085938	1732.217163085938	207.4983978271484	-805.6328735351562	1742.01806640625	335.6338806152344	-995.872802734375	1681.3720703125	230.09912109375	-995.0863037109375	1008.728576660156	142.8625793457031	-942.677978515625	1004.385559082031	511.5183715820312	-861.56494140625	1034.545166015625	456.8020629882812	-869.8284301757812	1040.107788085938	199.5064392089844	-790.861083984375	534.7172241210938	134.3663482666016	-848.3180541992188	672.4251708984375	118.5813064575195	-860.5062255859375	54.143798828125	123.6006164550781	-827.1851196289062	301.2194213867188	114.856201171875	-649.0894775390625	92.85901641845703	110.8857574462891	-687.1239013671875	85.48737335205078	167.4208526611328	-757.8819580078125	52.90963363647461	69.83601379394531	-899.6216430664062	55.32465744018555	201.423095703125	-955.1233520507812	504.11669921875	457.6120300292969	-901.1242065429688	769.8863525390625	503.4016723632812	-1119.416870117188	36.45734786987305	428.0647583007812	-960.0953369140625	380.6371765136719	435.5572814941406	-893.920166015625	46.35735702514648	419.6787109375	-941.1010131835938	41.88546371459961	369.7347412109375	-1011.479553222656	33.26453399658203	477.4054260253906	-1160.701538085938	37.46096420288086	353.0783996582031	
466	4.65	-1094.354736328125	1062.240112304688	386.3229370117188	-1098.936401367188	1066.126098632812	264.3661804199219	-1092.22021484375	1105.05517578125	329.9107971191406	-814.385498046875	1297.742919921875	312.0860595703125	-1110.800903320312	1262.001831054688	325.493408203125	-1033.800048828125	1528.158081054688	301.0287170410156	-837.916748046875	1412.382446289062	298.4056701660156	-1102.888671875	1359.6982421875	419.9865112304688	-1047.082763671875	1499.8291015625	201.3018951416016	-975.210693359375	1477.809326171875	119.3230438232422	-1022.642333984375	1344.568115234375	57.673583984375	-1028.47509765625	1127.459838867188	52.86520385742188	-1059.34423828125	1117.5791015625	135.6980743408203	-917.3123168945312	895.11865234375	71.15122985839844	-1006.004150390625	872.832275390625	50.95731353759766	-1021.413757324219	1015.604431152344	42.58339309692383	-896.5850219726562	710.0167236328125	97.74839782714844	-983.8172607421875	802.8379516601562	54.67008590698242	-911.3739624023438	815.0098266601562	54.15473937988281	-962.490478515625	1508.956909179688	479.2119750976562	-983.2992553710938	1446.330932617188	553.4837646484375	-1003.692260742188	1159.614624023438	619.313232421875	-1014.768859863281	1147.748046875	521.0736083984375	-864.6376342773438	931.8766479492188	598.5858764648438	-936.012451171875	915.4990844726562	650.0725708007812	-977.9923095703125	1087.16943359375	638.3826293945312	-849.9893188476562	745.0240478515625	577.2699584960938	-836.1972045898438	838.8190307617188	608.2689208984375	-906.1934204101562	832.758544921875	647.22265625	-972.2839965820312	1685.024169921875	366.5244750976562	-829.7203369140625	1733.03173828125	208.5839080810547	-809.9010620117188	1742.699584960938	336.7622375488281	-999.9285888671875	1682.043701171875	230.8749237060547	-998.023681640625	1009.207214355469	142.8478240966797	-946.4125366210938	1004.830627441406	511.7580871582031	-865.019287109375	1035.163208007812	457.4093627929688	-872.4890747070312	1040.671630859375	200.1119079589844	-793.7733764648438	534.7806396484375	134.8779754638672	-850.6021728515625	672.9390258789062	119.3493270874023	-874.8995971679688	55.83064270019531	124.6536102294922	-835.4453125	301.8744812011719	115.6133041381836	-662.7264404296875	90.02818298339844	112.0856018066406	-700.8369140625	83.32575225830078	168.5243682861328	-772.4107666015625	52.61590576171875	70.82645416259766	-914.2173461914062	57.85189437866211	202.3184051513672	-957.040771484375	504.5870056152344	457.818603515625	-904.0358276367188	770.4725952148438	503.8037414550781	-1119.589111328125	36.338134765625	428.1067810058594	-961.5169677734375	381.1027526855469	435.7175903320312	-894.2105712890625	46.82957458496094	419.6105346679688	-941.3690185546875	41.96639633178711	369.7698059082031	-1011.429382324219	33.41201782226562	477.2705383300781	-1160.805786132812	37.23649978637695	353.1893005371094	
467	4.66	-1097.52099609375	1062.501342773438	386.0263366699219	-1101.641235351562	1066.461547851562	264.0473022460938	-1095.228515625	1105.32421875	329.6610717773438	-817.771240234375	1298.4140625	312.9642639160156	-1114.120483398438	1262.1435546875	325.4450073242188	-1037.557983398438	1528.507080078125	301.3951721191406	-841.4922485351562	1412.999267578125	299.2767944335938	-1106.74169921875	1359.815551757812	419.9877624511719	-1050.524780273438	1500.099975585938	201.6607208251953	-978.4207763671875	1478.26025390625	119.8198318481445	-1025.69873046875	1344.983520507812	58.00946044921875	-1031.517700195312	1127.927856445312	52.97403717041016	-1062.343139648438	1117.880615234375	135.8180847167969	-920.0393676757812	895.7272338867188	70.88527679443359	-1008.72119140625	873.3526611328125	50.78113555908203	-1024.31787109375	1016.082580566406	42.54744338989258	-899.0011596679688	710.6084594726562	96.88304138183594	-986.4280395507812	803.4039916992188	54.27060699462891	-914.01025390625	815.7118530273438	53.65811538696289	-966.72021484375	1509.259521484375	479.7950744628906	-987.8668212890625	1446.658935546875	553.9651489257812	-1009.720886230469	1160.270751953125	619.6411743164062	-1020.282836914062	1148.277221679688	521.2767944335938	-873.0364379882812	930.9342041015625	600.4819946289062	-944.986572265625	915.7687377929688	651.7138061523438	-984.8129272460938	1087.787963867188	639.049560546875	-860.7214965820312	743.8029174804688	579.8900756835938	-845.9696655273438	837.5084228515625	610.6673583984375	-916.23046875	832.5272216796875	649.2946166992188	-976.4722900390625	1685.505981445312	367.2926330566406	-833.70947265625	1733.807983398438	209.5862274169922	-814.1080322265625	1743.370483398438	337.8002624511719	-1003.904052734375	1682.598510742188	231.5929870605469	-1000.828674316406	1009.602416992188	142.7052307128906	-950.0540771484375	1005.235900878906	511.887451171875	-868.313232421875	1035.759399414062	457.9544372558594	-874.9642333984375	1041.152954101562	200.6484985351562	-796.852294921875	534.6007080078125	135.4011383056641	-852.9659423828125	673.2262573242188	120.0132293701172	-889.3478393554688	57.58345413208008	125.6668701171875	-843.8037719726562	302.4602661132812	116.3574447631836	-676.537353515625	87.30971527099609	113.2808990478516	-714.7006225585938	81.2725830078125	169.5959777832031	-787.0598754882812	52.45071029663086	71.77161407470703	-928.8870849609375	60.43651962280273	203.1515045166016	-958.8646240234375	505.04052734375	458.0145568847656	-906.7645874023438	771.0438842773438	504.1497497558594	-1119.75	36.21962356567383	428.1579284667969	-962.8837890625	381.5561828613281	435.8682861328125	-894.460205078125	47.23801422119141	419.5564880371094	-941.6026000976562	42.0463752746582	369.8048706054688	-1011.40625	33.51188659667969	477.1798400878906	-1160.9091796875	37.05394744873047	353.3024291992188	
468	4.67	-1100.520751953125	1062.689453125	385.6644287109375	-1104.173950195312	1066.731323242188	263.6591796875	-1098.074096679688	1105.515502929688	329.3394165039062	-821.0375366210938	1299.0458984375	313.7920837402344	-1117.302124023438	1262.225341796875	325.3119201660156	-1041.204833984375	1528.799438476562	301.6992492675781	-844.953369140625	1413.579345703125	300.096435546875	-1110.466918945312	1359.86962890625	419.9106750488281	-1053.818725585938	1500.330444335938	201.9568176269531	-981.5067749023438	1478.664794921875	120.2590866088867	-1028.642578125	1345.366088867188	58.2643928527832	-1034.453247070312	1128.390747070312	52.92833709716797	-1065.27734375	1118.143676757812	135.7666625976562	-922.6980590820312	896.310302734375	70.46400451660156	-1011.334899902344	873.8713989257812	50.30572509765625	-1027.109130859375	1016.560791015625	42.29790496826172	-901.3834228515625	711.1651611328125	95.71356201171875	-988.9326782226562	803.9732666015625	53.52912521362305	-916.5406494140625	816.4207153320312	52.93004608154297	-970.849853515625	1509.527954101562	480.3065490722656	-992.3234252929688	1446.95263671875	554.3825073242188	-1015.553100585938	1160.885864257812	619.92724609375	-1025.616088867188	1148.773559570312	521.4514770507812	-881.2306518554688	929.9679565429688	602.2776489257812	-953.778076171875	916.0740356445312	653.3143920898438	-991.4343872070312	1088.386596679688	639.6699829101562	-871.4600219726562	742.5767822265625	582.4299926757812	-855.6659545898438	836.1810913085938	612.9680786132812	-926.1432495117188	832.3312377929688	651.318359375	-980.5670776367188	1685.915283203125	367.9898986816406	-837.6392211914062	1734.554931640625	210.5128326416016	-818.2477416992188	1744.030639648438	338.7593383789062	-1007.793212890625	1683.059448242188	232.2509155273438	-1003.463134765625	1009.932922363281	142.4704742431641	-953.5916137695312	1005.587341308594	511.91845703125	-871.4442749023438	1036.331909179688	458.4398498535156	-877.2619018554688	1041.575805664062	201.1158294677734	-800.1263427734375	534.1843872070312	135.9536285400391	-855.4270629882812	673.2936401367188	120.5849151611328	-903.7928466796875	59.39863586425781	126.6264343261719	-852.2496948242188	302.9784240722656	117.0954284667969	-690.450927734375	84.72628784179688	114.479866027832	-728.6458129882812	79.35313415527344	170.6433868408203	-801.7433471679688	52.41107177734375	72.68328857421875	-943.540283203125	63.05082321166992	203.9331970214844	-960.5791625976562	505.4702453613281	458.1791381835938	-909.3226928710938	771.5875244140625	504.4284973144531	-1119.892211914062	36.10977172851562	428.2113952636719	-964.1818237304688	381.9915161132812	435.9937744140625	-894.6656494140625	47.57366180419922	419.5130004882812	-941.7979125976562	42.11831665039062	369.8331604003906	-1011.407836914062	33.56845855712891	477.1213073730469	-1161.06396484375	36.94824600219727	353.3705444335938	
